<svg width="46" height="46" viewBox="0 0 46 46" fill="none" xmlns="http://www.w3.org/2000/svg">
<g clip-path="url(#clip0_12_417)">
<rect width="46" height="46" rx="23" fill="#8F00FF"/>
<path fill-rule="evenodd" clip-rule="evenodd" d="M33.8977 -2.19043H38.351V23.2482L38.351 23.2824L38.351 23.3165V24.173H38.325C38.1365 27.3835 36.9358 30.3218 35.0375 32.6737L40.6443 38.2805L37.4954 41.4294L31.7552 35.6892C29.3668 37.303 26.4874 38.2454 23.388 38.2454C15.1241 38.2454 8.42493 31.5462 8.42493 23.2824C8.42493 15.0185 15.1241 8.31932 23.388 8.31932C27.484 8.31932 31.1957 9.96517 33.8977 12.6316V-2.19043ZM23.477 33.614C29.2258 33.614 33.8874 28.9588 33.8977 23.2124V23.1742C33.8874 17.4278 29.2258 12.7726 23.477 12.7726C17.7218 12.7726 13.0563 17.4381 13.0563 23.1933C13.0563 28.9485 17.7218 33.614 23.477 33.614Z" fill="white"/>
<path fill-rule="evenodd" clip-rule="evenodd" d="M19.686 17.2646C20.7802 16.5635 22.0811 16.157 23.4771 16.157C27.363 16.157 30.5133 19.3072 30.5133 23.1932C30.5133 24.5891 30.1068 25.8901 29.4057 26.9842L27.1387 24.7172C27.3611 24.2252 27.485 23.6791 27.485 23.1041C27.485 20.9398 25.7304 19.1852 23.5661 19.1852C22.9911 19.1852 22.445 19.3091 21.953 19.5315L19.686 17.2646Z" fill="white"/>
</g>
<defs>
<clipPath id="clip0_12_417">
<rect width="46" height="46" rx="23" fill="white"/>
</clipPath>
</defs>
</svg>
