<svg width="40" height="40" viewBox="0 0 40 40" fill="none" xmlns="http://www.w3.org/2000/svg">
<g clip-path="url(#clip0_101_12)">
<rect y="0.28125" width="39.5" height="39.5" rx="19.75" fill="#8F00FF"/>
<path fill-rule="evenodd" clip-rule="evenodd" d="M29.1078 -1.5997H32.9318V20.2463L32.9318 20.2737L32.9318 20.3011V21.0385H32.9095C32.7476 23.7953 31.7166 26.3184 30.0866 28.3379L34.9011 33.1525L32.1971 35.8565L27.268 30.9274C25.2171 32.3132 22.7446 33.1224 20.0831 33.1224C12.987 33.1224 7.23444 27.3698 7.23444 20.2737C7.23444 13.1776 12.987 7.42499 20.0831 7.42499C23.6004 7.42499 26.7876 8.83827 29.1078 11.1279V-1.5997ZM20.1596 29.1454C25.0937 29.1454 29.0951 25.1519 29.1078 20.2208V20.1736C29.0951 15.2425 25.0937 11.249 20.1596 11.249C15.2177 11.249 11.2114 15.2553 11.2114 20.1972C11.2114 25.1392 15.2177 29.1454 20.1596 29.1454Z" fill="white"/>
<path fill-rule="evenodd" clip-rule="evenodd" d="M16.9042 15.1063C17.8438 14.5043 18.9609 14.1552 20.1596 14.1552C23.4965 14.1552 26.2015 16.8603 26.2015 20.1972C26.2015 21.3959 25.8525 22.513 25.2505 23.4525L23.3038 21.5059C23.4949 21.0835 23.6012 20.6145 23.6012 20.1207C23.6012 18.2622 22.0946 16.7556 20.2361 16.7556C19.7423 16.7556 19.2733 16.8619 18.8509 17.053L16.9042 15.1063Z" fill="white"/>
</g>
<defs>
<clipPath id="clip0_101_12">
<rect y="0.28125" width="39.5" height="39.5" rx="19.75" fill="white"/>
</clipPath>
</defs>
</svg>
