<svg width="316" height="218" viewBox="0 0 316 218" fill="none" xmlns="http://www.w3.org/2000/svg">
<path d="M76.752 57.264H92.368V62H70.928V17.392H76.752V57.264ZM130.553 43.12C130.553 44.2293 130.489 45.4027 130.361 46.64H102.329C102.542 50.096 103.716 52.8053 105.849 54.768C108.025 56.688 110.649 57.648 113.721 57.648C116.238 57.648 118.329 57.072 119.993 55.92C121.7 54.7253 122.894 53.1467 123.577 51.184H129.849C128.91 54.5547 127.033 57.3067 124.217 59.44C121.401 61.5307 117.902 62.576 113.721 62.576C110.393 62.576 107.406 61.8293 104.761 60.336C102.158 58.8427 100.11 56.7307 98.617 54C97.1237 51.2267 96.377 48.0267 96.377 44.4C96.377 40.7733 97.1023 37.5947 98.553 34.864C100.004 32.1333 102.03 30.0427 104.633 28.592C107.278 27.0987 110.308 26.352 113.721 26.352C117.049 26.352 119.993 27.0773 122.553 28.528C125.113 29.9787 127.076 31.984 128.441 34.544C129.849 37.0613 130.553 39.92 130.553 43.12ZM124.537 41.904C124.537 39.6853 124.046 37.7867 123.065 36.208C122.084 34.5867 120.74 33.3707 119.033 32.56C117.369 31.7067 115.513 31.28 113.465 31.28C110.521 31.28 108.004 32.2187 105.913 34.096C103.865 35.9733 102.692 38.576 102.393 41.904H124.537ZM136.065 44.336C136.065 40.752 136.79 37.616 138.241 34.928C139.691 32.1973 141.675 30.0853 144.193 28.592C146.753 27.0987 149.59 26.352 152.705 26.352C155.777 26.352 158.443 27.0133 160.705 28.336C162.966 29.6587 164.651 31.3227 165.761 33.328V26.928H171.649V62H165.761V55.472C164.609 57.52 162.881 59.2267 160.577 60.592C158.315 61.9147 155.67 62.576 152.641 62.576C149.526 62.576 146.71 61.808 144.193 60.272C141.675 58.736 139.691 56.5813 138.241 53.808C136.79 51.0347 136.065 47.8773 136.065 44.336ZM165.761 44.4C165.761 41.7547 165.227 39.4507 164.161 37.488C163.094 35.5253 161.643 34.032 159.809 33.008C158.017 31.9413 156.033 31.408 153.857 31.408C151.681 31.408 149.697 31.92 147.905 32.944C146.113 33.968 144.683 35.4613 143.617 37.424C142.55 39.3867 142.017 41.6907 142.017 44.336C142.017 47.024 142.55 49.3707 143.617 51.376C144.683 53.3387 146.113 54.8533 147.905 55.92C149.697 56.944 151.681 57.456 153.857 57.456C156.033 57.456 158.017 56.944 159.809 55.92C161.643 54.8533 163.094 53.3387 164.161 51.376C165.227 49.3707 165.761 47.0453 165.761 44.4ZM187.315 32.624C188.339 30.6187 189.789 29.0613 191.667 27.952C193.587 26.8427 195.912 26.288 198.643 26.288V32.304H197.107C190.579 32.304 187.315 35.8453 187.315 42.928V62H181.491V26.928H187.315V32.624ZM222.454 26.288C226.72 26.288 230.176 27.5893 232.822 30.192C235.467 32.752 236.79 36.464 236.79 41.328V62H231.03V42.16C231.03 38.6613 230.155 35.9947 228.406 34.16C226.656 32.2827 224.267 31.344 221.238 31.344C218.166 31.344 215.712 32.304 213.878 34.224C212.086 36.144 211.19 38.9387 211.19 42.608V62H205.366V26.928H211.19V31.92C212.342 30.128 213.899 28.7413 215.862 27.76C217.867 26.7787 220.064 26.288 222.454 26.288Z" fill="white" fill-opacity="0.59"/>
<path d="M32.384 65.392V70.128H20.224V110H14.4V70.128H2.176V65.392H32.384ZM45.377 80.624C46.401 78.6187 47.8517 77.0613 49.729 75.952C51.649 74.8427 53.9743 74.288 56.705 74.288V80.304H55.169C48.641 80.304 45.377 83.8453 45.377 90.928V110H39.553V74.928H45.377V80.624ZM66.436 69.232C65.3267 69.232 64.388 68.848 63.62 68.08C62.852 67.312 62.468 66.3733 62.468 65.264C62.468 64.1547 62.852 63.216 63.62 62.448C64.388 61.68 65.3267 61.296 66.436 61.296C67.5027 61.296 68.3987 61.68 69.124 62.448C69.892 63.216 70.276 64.1547 70.276 65.264C70.276 66.3733 69.892 67.312 69.124 68.08C68.3987 68.848 67.5027 69.232 66.436 69.232ZM69.252 74.928V110H63.428V74.928H69.252ZM77.002 92.4C77.002 88.7733 77.7273 85.616 79.178 82.928C80.6287 80.1973 82.634 78.0853 85.194 76.592C87.7967 75.0987 90.762 74.352 94.09 74.352C98.3993 74.352 101.941 75.3973 104.714 77.488C107.53 79.5787 109.386 82.48 110.282 86.192H104.01C103.413 84.0587 102.239 82.3733 100.49 81.136C98.7833 79.8987 96.65 79.28 94.09 79.28C90.762 79.28 88.074 80.432 86.026 82.736C83.978 84.9973 82.954 88.2187 82.954 92.4C82.954 96.624 83.978 99.888 86.026 102.192C88.074 104.496 90.762 105.648 94.09 105.648C96.65 105.648 98.7833 105.051 100.49 103.856C102.197 102.661 103.37 100.955 104.01 98.736H110.282C109.343 102.32 107.466 105.2 104.65 107.376C101.834 109.509 98.314 110.576 94.09 110.576C90.762 110.576 87.7967 109.829 85.194 108.336C82.634 106.843 80.6287 104.731 79.178 102C77.7273 99.2693 77.002 96.0693 77.002 92.4ZM137.637 110L123.877 94.512V110H118.053V62.64H123.877V90.48L137.381 74.928H145.509L128.997 92.4L145.573 110H137.637Z" fill="white" fill-opacity="0.59"/>
<path d="M103.384 115.392V120.128H91.224V160H85.4V120.128H73.176V115.392H103.384ZM113.561 119.232C112.452 119.232 111.513 118.848 110.745 118.08C109.977 117.312 109.593 116.373 109.593 115.264C109.593 114.155 109.977 113.216 110.745 112.448C111.513 111.68 112.452 111.296 113.561 111.296C114.628 111.296 115.524 111.68 116.249 112.448C117.017 113.216 117.401 114.155 117.401 115.264C117.401 116.373 117.017 117.312 116.249 118.08C115.524 118.848 114.628 119.232 113.561 119.232ZM116.377 124.928V160H110.553V124.928H116.377ZM132.127 131.392C133.279 129.387 134.986 127.723 137.247 126.4C139.551 125.035 142.218 124.352 145.247 124.352C148.362 124.352 151.178 125.099 153.695 126.592C156.255 128.085 158.26 130.197 159.711 132.928C161.162 135.616 161.887 138.752 161.887 142.336C161.887 145.877 161.162 149.035 159.711 151.808C158.26 154.581 156.255 156.736 153.695 158.272C151.178 159.808 148.362 160.576 145.247 160.576C142.26 160.576 139.615 159.915 137.311 158.592C135.05 157.227 133.322 155.541 132.127 153.536V176.64H126.303V124.928H132.127V131.392ZM155.935 142.336C155.935 139.691 155.402 137.387 154.335 135.424C153.268 133.461 151.818 131.968 149.983 130.944C148.191 129.92 146.207 129.408 144.031 129.408C141.898 129.408 139.914 129.941 138.079 131.008C136.287 132.032 134.836 133.547 133.727 135.552C132.66 137.515 132.127 139.797 132.127 142.4C132.127 145.045 132.66 147.371 133.727 149.376C134.836 151.339 136.287 152.853 138.079 153.92C139.914 154.944 141.898 155.456 144.031 155.456C146.207 155.456 148.191 154.944 149.983 153.92C151.818 152.853 153.268 151.339 154.335 149.376C155.402 147.371 155.935 145.024 155.935 142.336ZM181.969 160.576C179.281 160.576 176.87 160.128 174.737 159.232C172.604 158.293 170.918 157.013 169.681 155.392C168.444 153.728 167.761 151.829 167.633 149.696H173.649C173.82 151.445 174.63 152.875 176.081 153.984C177.574 155.093 179.516 155.648 181.905 155.648C184.124 155.648 185.873 155.157 187.153 154.176C188.433 153.195 189.073 151.957 189.073 150.464C189.073 148.928 188.39 147.797 187.025 147.072C185.66 146.304 183.548 145.557 180.689 144.832C178.086 144.149 175.953 143.467 174.289 142.784C172.668 142.059 171.26 141.013 170.065 139.648C168.913 138.24 168.337 136.405 168.337 134.144C168.337 132.352 168.87 130.709 169.937 129.216C171.004 127.723 172.518 126.549 174.481 125.696C176.444 124.8 178.684 124.352 181.201 124.352C185.084 124.352 188.22 125.333 190.609 127.296C192.998 129.259 194.278 131.947 194.449 135.36H188.625C188.497 133.525 187.75 132.053 186.385 130.944C185.062 129.835 183.27 129.28 181.009 129.28C178.918 129.28 177.254 129.728 176.017 130.624C174.78 131.52 174.161 132.693 174.161 134.144C174.161 135.296 174.524 136.256 175.249 137.024C176.017 137.749 176.956 138.347 178.065 138.816C179.217 139.243 180.796 139.733 182.801 140.288C185.318 140.971 187.366 141.653 188.945 142.336C190.524 142.976 191.868 143.957 192.977 145.28C194.129 146.603 194.726 148.331 194.769 150.464C194.769 152.384 194.236 154.112 193.169 155.648C192.102 157.184 190.588 158.4 188.625 159.296C186.705 160.149 184.486 160.576 181.969 160.576Z" fill="white" fill-opacity="0.59"/>
<path d="M41.752 177.664C41.752 173.312 42.7333 169.408 44.696 165.952C46.6587 162.453 49.3253 159.723 52.696 157.76C56.1093 155.797 59.8853 154.816 64.024 154.816C68.888 154.816 73.1333 155.989 76.76 158.336C80.3867 160.683 83.032 164.011 84.696 168.32H77.72C76.4827 165.632 74.6907 163.563 72.344 162.112C70.04 160.661 67.2667 159.936 64.024 159.936C60.9093 159.936 58.1147 160.661 55.64 162.112C53.1653 163.563 51.224 165.632 49.816 168.32C48.408 170.965 47.704 174.08 47.704 177.664C47.704 181.205 48.408 184.32 49.816 187.008C51.224 189.653 53.1653 191.701 55.64 193.152C58.1147 194.603 60.9093 195.328 64.024 195.328C67.2667 195.328 70.04 194.624 72.344 193.216C74.6907 191.765 76.4827 189.696 77.72 187.008H84.696C83.032 191.275 80.3867 194.581 76.76 196.928C73.1333 199.232 68.888 200.384 64.024 200.384C59.8853 200.384 56.1093 199.424 52.696 197.504C49.3253 195.541 46.6587 192.832 44.696 189.376C42.7333 185.92 41.752 182.016 41.752 177.664ZM108.662 200.576C105.376 200.576 102.39 199.829 99.7015 198.336C97.0562 196.843 94.9655 194.731 93.4295 192C91.9362 189.227 91.1895 186.027 91.1895 182.4C91.1895 178.816 91.9575 175.659 93.4935 172.928C95.0722 170.155 97.2055 168.043 99.8935 166.592C102.582 165.099 105.59 164.352 108.918 164.352C112.246 164.352 115.254 165.099 117.942 166.592C120.63 168.043 122.742 170.133 124.278 172.864C125.856 175.595 126.646 178.773 126.646 182.4C126.646 186.027 125.835 189.227 124.214 192C122.635 194.731 120.48 196.843 117.75 198.336C115.019 199.829 111.99 200.576 108.662 200.576ZM108.662 195.456C110.752 195.456 112.715 194.965 114.55 193.984C116.384 193.003 117.856 191.531 118.966 189.568C120.118 187.605 120.694 185.216 120.694 182.4C120.694 179.584 120.139 177.195 119.03 175.232C117.92 173.269 116.47 171.819 114.678 170.88C112.886 169.899 110.944 169.408 108.854 169.408C106.72 169.408 104.758 169.899 102.966 170.88C101.216 171.819 99.8082 173.269 98.7415 175.232C97.6748 177.195 97.1415 179.584 97.1415 182.4C97.1415 185.259 97.6535 187.669 98.6775 189.632C99.7442 191.595 101.152 193.067 102.902 194.048C104.651 194.987 106.571 195.456 108.662 195.456ZM151.391 164.288C155.658 164.288 159.114 165.589 161.759 168.192C164.404 170.752 165.727 174.464 165.727 179.328V200H159.967V180.16C159.967 176.661 159.092 173.995 157.343 172.16C155.594 170.283 153.204 169.344 150.175 169.344C147.103 169.344 144.65 170.304 142.815 172.224C141.023 174.144 140.127 176.939 140.127 180.608V200H134.303V164.928H140.127V169.92C141.279 168.128 142.836 166.741 144.799 165.76C146.804 164.779 149.002 164.288 151.391 164.288ZM173.065 182.4C173.065 178.773 173.79 175.616 175.241 172.928C176.691 170.197 178.697 168.085 181.257 166.592C183.859 165.099 186.825 164.352 190.153 164.352C194.462 164.352 198.003 165.397 200.777 167.488C203.593 169.579 205.449 172.48 206.345 176.192H200.073C199.475 174.059 198.302 172.373 196.553 171.136C194.846 169.899 192.713 169.28 190.153 169.28C186.825 169.28 184.137 170.432 182.089 172.736C180.041 174.997 179.017 178.219 179.017 182.4C179.017 186.624 180.041 189.888 182.089 192.192C184.137 194.496 186.825 195.648 190.153 195.648C192.713 195.648 194.846 195.051 196.553 193.856C198.259 192.661 199.433 190.955 200.073 188.736H206.345C205.406 192.32 203.529 195.2 200.713 197.376C197.897 199.509 194.377 200.576 190.153 200.576C186.825 200.576 183.859 199.829 181.257 198.336C178.697 196.843 176.691 194.731 175.241 192C173.79 189.269 173.065 186.069 173.065 182.4ZM246.116 181.12C246.116 182.229 246.052 183.403 245.924 184.64H217.892C218.105 188.096 219.278 190.805 221.412 192.768C223.588 194.688 226.212 195.648 229.284 195.648C231.801 195.648 233.892 195.072 235.556 193.92C237.262 192.725 238.457 191.147 239.14 189.184H245.412C244.473 192.555 242.596 195.307 239.78 197.44C236.964 199.531 233.465 200.576 229.284 200.576C225.956 200.576 222.969 199.829 220.324 198.336C217.721 196.843 215.673 194.731 214.18 192C212.686 189.227 211.94 186.027 211.94 182.4C211.94 178.773 212.665 175.595 214.116 172.864C215.566 170.133 217.593 168.043 220.196 166.592C222.841 165.099 225.87 164.352 229.284 164.352C232.612 164.352 235.556 165.077 238.116 166.528C240.676 167.979 242.638 169.984 244.004 172.544C245.412 175.061 246.116 177.92 246.116 181.12ZM240.1 179.904C240.1 177.685 239.609 175.787 238.628 174.208C237.646 172.587 236.302 171.371 234.596 170.56C232.932 169.707 231.076 169.28 229.028 169.28C226.084 169.28 223.566 170.219 221.476 172.096C219.428 173.973 218.254 176.576 217.956 179.904H240.1ZM259.627 171.392C260.779 169.387 262.486 167.723 264.747 166.4C267.051 165.035 269.718 164.352 272.747 164.352C275.862 164.352 278.678 165.099 281.195 166.592C283.755 168.085 285.76 170.197 287.211 172.928C288.662 175.616 289.387 178.752 289.387 182.336C289.387 185.877 288.662 189.035 287.211 191.808C285.76 194.581 283.755 196.736 281.195 198.272C278.678 199.808 275.862 200.576 272.747 200.576C269.76 200.576 267.115 199.915 264.811 198.592C262.55 197.227 260.822 195.541 259.627 193.536V216.64H253.803V164.928H259.627V171.392ZM283.435 182.336C283.435 179.691 282.902 177.387 281.835 175.424C280.768 173.461 279.318 171.968 277.483 170.944C275.691 169.92 273.707 169.408 271.531 169.408C269.398 169.408 267.414 169.941 265.579 171.008C263.787 172.032 262.336 173.547 261.227 175.552C260.16 177.515 259.627 179.797 259.627 182.4C259.627 185.045 260.16 187.371 261.227 189.376C262.336 191.339 263.787 192.853 265.579 193.92C267.414 194.944 269.398 195.456 271.531 195.456C273.707 195.456 275.691 194.944 277.483 193.92C279.318 192.853 280.768 191.339 281.835 189.376C282.902 187.371 283.435 185.024 283.435 182.336ZM304.157 169.728V190.4C304.157 192.107 304.52 193.323 305.245 194.048C305.97 194.731 307.229 195.072 309.021 195.072H313.309V200H308.061C304.818 200 302.386 199.253 300.765 197.76C299.144 196.267 298.333 193.813 298.333 190.4V169.728H293.789V164.928H298.333V156.096H304.157V164.928H313.309V169.728H304.157Z" fill="white" fill-opacity="0.59"/>
</svg>
