<svg width="549" height="667" viewBox="0 0 549 667" fill="none" xmlns="http://www.w3.org/2000/svg">
<g clip-path="url(#clip0_2_27)">
<path d="M332.093 532.633C332.093 532.633 285.524 572.089 281.773 579.546C278.022 587.002 287.712 679.582 287.712 679.582C287.712 679.582 382.101 686.728 388.664 684.864C395.228 683 422.106 629.875 422.106 629.875L410.855 577.681C410.855 577.681 373.927 541.92 362.279 538.678C350.632 535.438 332.093 532.633 332.093 532.633" fill="white"/>
<path d="M578.894 470.808C578.894 470.808 616.399 491.312 635.152 502.497V679.582H450.993C450.993 679.582 465.439 629.252 466.376 626.456C467.314 623.66 578.894 470.808 578.894 470.808Z" fill="#191919"/>
<path d="M288.927 582.185C288.927 582.185 294.319 581.486 300.179 576.244C306.039 571.001 315.534 563.757 316.471 564.176C317.409 564.594 318.283 565.643 318.283 567.04C318.285 568.438 319.35 563.895 319.785 563.311C320.222 562.73 320.807 555.156 320.807 554.575C320.807 553.991 319.05 551.428 319.05 551.428C319.05 551.428 308.033 554.342 307.211 555.041C306.392 555.74 291.037 576.71 288.927 577.758C286.818 578.807 288.927 582.185 288.927 582.185Z" fill="#B7B9B7"/>
<path d="M260.095 478.264L146.64 528.416V679.582H238.529L260.095 478.264Z" fill="#191919"/>
<path d="M291.506 596.631C296.7 633.204 292.8 679.582 292.8 679.582H222.008C221.745 676.879 219.157 666.981 215.575 654.007L215.557 653.951C215.482 653.671 215.407 653.392 215.332 653.094C206.124 619.802 190.728 567.273 191.065 562.948C191.534 556.89 216.851 545.239 217.319 542.052C217.788 538.864 206.068 522.405 204.661 519.609C203.93 518.155 225.908 499.253 247.305 481.339L247.455 481.209C267.352 464.544 286.705 448.774 286.705 448.774L300.188 471.963C300.188 471.963 286.03 558.101 291.506 596.631Z" fill="#191919"/>
<path d="M402.247 599.37C402.247 599.37 397.225 590.34 391.834 593.835C386.442 597.33 382.926 614.573 379.644 617.602C376.363 620.631 379.879 629.718 380.816 638.805C381.754 647.893 382.926 674.787 382.692 680.447C382.457 686.106 375.659 683.543 375.659 683.543L370.033 670.96C370.033 670.96 367.221 633.446 366.752 622.728C366.283 612.01 389.255 571.467 389.255 571.467C389.255 571.467 402.348 594.885 402.247 599.37Z" fill="#B7B9B7"/>
<path d="M377.619 679.582L349.718 683.31L295.144 679.582C296.588 655.349 312.096 625.17 319.785 611.6C321.96 607.741 323.498 605.225 323.911 604.572L324.004 604.405L325.411 604.666L364.061 611.786L367.605 612.439C367.886 613.128 368.168 613.855 368.43 614.582C377.319 638.834 377.619 679.582 377.619 679.582" fill="#8F00FF"/>
<path d="M377.619 679.582L367.592 680.922C367.479 675.983 367.005 656.747 365.823 648.359C364.398 638.572 361.6 633.797 358.431 629.137C355.262 624.477 350.579 621.664 338.032 618.981C328.308 616.903 322.561 613.259 319.785 611.6C321.96 607.741 323.498 605.225 323.911 604.572L325.411 604.666L337.694 605.374C337.694 605.374 361.829 610.5 362.185 610.612C362.26 610.631 362.973 611.078 364.061 611.786C365.205 612.513 366.761 613.52 368.43 614.582C377.319 638.834 377.619 679.582 377.619 679.582" fill="#191919"/>
<path d="M398.866 567.739C385.139 583.434 375.5 608.3 372.593 616.372C372.012 617.956 370.512 619 368.824 618.982C362.467 618.888 346.733 618.366 334.487 615.682C325.373 613.669 318.172 610.463 318.229 605.337C318.379 591.356 318.229 540.784 318.229 540.784C317.103 530.756 334.487 524.865 345.42 530.774C352.903 534.801 359.11 537.429 362.279 538.678C363.742 539.274 364.548 539.554 364.548 539.554C388.346 540.262 407.417 557.971 398.866 567.739" fill="#8F00FF"/>
<path d="M398.866 567.739C385.139 583.434 375.5 608.3 372.593 616.372C372.012 617.956 370.512 619 368.824 618.982C362.467 618.888 346.733 618.366 334.487 615.682L334.469 615.663C334.469 615.663 351.926 617.835 360.741 609.904C364.297 606.705 374.018 577.283 372.837 564.178C371.674 551.055 362.26 538.79 362.26 538.79L362.279 538.678C363.742 539.274 364.548 539.554 364.548 539.554C388.346 540.262 407.417 557.971 398.866 567.739" fill="#191919"/>
<path d="M360.723 538.175C360.066 537.895 343.301 530.681 334.637 539.647C334.3 539.983 333.925 540.374 333.493 540.803C324.173 550.179 293.1 579.389 290.287 578.923C288.58 557.076 297.638 482.085 297.638 482.085L342.289 488.181L356.953 527.941L356.972 527.96L360.723 538.175" fill="white"/>
<path d="M360.723 538.175C360.066 537.895 343.301 530.681 334.637 539.647C334.3 539.983 333.925 540.374 333.493 540.803L333.437 540.84C333.437 540.84 337.525 535.341 339.082 534.409C340.657 533.477 340.732 533.253 339.644 529.842C338.538 526.412 337.3 513.532 334.169 504.678C331.037 495.823 326.517 493.325 326.517 493.325L328.149 492.17L340.882 492.468C340.882 492.468 342.757 494.723 345.42 501.881C348.083 509.021 355.584 525.331 355.884 526.114C355.959 526.319 356.372 527.009 356.953 527.941L356.972 527.96L360.723 538.175" fill="#B7B9B7"/>
<path d="M485.354 425.12C485.354 425.12 456.644 518.173 384.014 539.144C384.014 539.144 383.432 539.368 382.382 539.647C377.206 541.027 360.723 543.841 348.121 528.426C348.121 528.426 343.282 497.203 336.906 488.423C330.512 479.643 419.344 305 419.344 305L460.525 301.104L463.263 300.843C463.263 300.843 467.558 359.822 478.922 404.13L478.941 404.149C480.872 411.68 482.991 418.8 485.354 425.12" fill="#191919"/>
<path d="M382.382 539.647C377.206 541.027 360.723 543.841 348.121 528.426C348.121 528.426 343.282 497.203 336.906 488.423L352.509 492.058C352.509 492.058 357.76 500.949 362.767 503.895C367.774 506.84 369.011 510.736 369.18 512.283C369.33 513.83 369.18 517.558 370.268 519.422C371.355 521.286 370.849 539.2 379.007 538.715C380.938 538.603 381.951 538.976 382.382 539.647" fill="#B7B9B7"/>
<path d="M478.922 404.13C478.678 403.552 478.397 402.807 478.097 401.837C470.84 378.555 459.344 302.576 459.344 302.576L460.526 301.104L463.263 300.843C463.263 300.843 467.558 359.822 478.922 404.13" fill="#B7B9B7"/>
<path d="M474.796 534.521C456.194 563.06 414.301 613.874 414.301 613.874C404.362 606.567 380.451 564.887 376.4 552.453C372.349 540.001 364.548 539.554 364.548 539.554C438.566 542.443 481.285 435.726 485.073 425.846C485.167 425.623 485.261 425.38 485.354 425.119C481.172 416.042 477.366 399.656 474.665 385.937C472.152 373.131 470.596 362.636 470.596 362.636C470.596 362.636 481.416 370.577 490.811 380.494C499.832 390.001 513.371 410.617 513.315 416.713C513.277 421.596 518.228 467.937 474.796 534.521" fill="white"/>
<path d="M485.354 425.12C481.172 416.042 477.366 399.657 474.665 385.937C476.672 388.416 479.185 391.436 482.091 394.847C490.043 404.168 489.724 413.264 485.354 425.12" fill="#B7B9B7"/>
<path d="M493.924 251.837C490.493 264.512 481.472 286.844 477.253 295.624C473.015 304.403 451.487 308.914 451.487 308.914C451.487 308.914 446.33 360.381 444.117 369.645C441.923 378.91 425.964 419.639 412.724 435.745C399.466 451.832 359.279 491.163 347.502 494.462C335.725 497.743 309.959 497.016 301.689 490.623C299.251 488.74 296.363 485.291 293.456 481.228L293.437 481.209C286.48 471.535 279.298 458.43 277.216 454.944C274.684 450.694 269.677 446.426 264.82 439.715C264.033 438.634 263.264 437.497 262.495 436.285C259.12 430.935 255.2 423.666 251.431 416.247L251.412 416.172C249.031 411.456 246.705 406.665 244.642 402.266C239.298 390.914 224.033 364.034 224.033 364.034C222.551 361.182 221.07 357.958 219.626 354.528C218.688 352.272 217.751 349.942 216.869 347.575C212.481 336.074 208.918 323.883 207.962 317.209C207.493 313.984 206.987 311.077 206.518 308.635C205.505 303.359 204.642 300.135 204.642 300.135C204.642 300.135 160.217 140.105 296.907 110.839C405.88 87.5015 442.541 143.013 454.843 181.04C460.676 199.009 461.051 213.064 461.051 213.064C461.051 213.064 476.765 198.171 490.249 205.254C503.751 212.319 497.375 239.161 493.924 251.837" fill="#B7B9B7"/>
<path d="M295.14 413.838C295.14 413.838 302.407 427.002 303.93 425.722C305.454 424.439 301.469 414.77 301.469 414.77L295.14 413.838Z" fill="white"/>
<path d="M284.513 359.206V359.356L281.1 359.896L281.081 359.523C280.687 352.309 270.673 352.179 270.036 352.179C275.324 351.303 278.662 352.011 280.8 353.279C283.031 354.64 283.931 356.578 284.288 357.902L284.344 358.181C284.457 358.647 284.494 359.02 284.513 359.206" fill="white"/>
<path d="M306.118 457.604C306.118 457.604 300.179 458.924 292.209 458.691C290.784 458.65 292.365 462.652 299.007 463.43C305.649 464.207 310.756 463.42 314.555 463.832C318.354 464.246 310.259 458.924 310.259 458.924L306.118 457.604" fill="white"/>
<path d="M493.924 251.837C490.493 264.512 481.472 286.844 477.253 295.623C475.472 299.314 470.671 302.241 465.683 304.385C458.763 307.386 451.487 308.914 451.487 308.914C451.487 308.914 446.33 360.381 444.117 369.645C443.254 373.299 440.254 381.799 436.128 391.772C435.978 392.163 435.847 392.517 435.715 392.815C429.377 407.989 420.582 426.201 412.724 435.745C399.466 451.831 359.279 491.163 347.502 494.462C350.99 491.909 354.59 486.689 355.472 480.24C356.391 473.492 351.402 467.396 344.614 466.558C343.714 466.446 342.776 466.39 341.82 466.352C330.981 466.017 321.792 464.507 313.072 463.687C304.351 462.885 302.532 459.195 300.451 457.685C298.369 456.156 290.099 450.266 289.48 449.762C288.862 449.259 294.337 451.813 302.514 452.13C310.971 452.465 313.54 452.465 324.155 451.533L324.605 451.347C326.049 450.005 330.812 443.089 316.897 443.089L316.878 443.014C314.572 442.698 312.49 441.132 310.315 441.02C307.652 440.852 297.507 441.02 293.906 441.02C290.306 441.02 285.317 439.771 281.398 438.056C277.497 436.36 273.597 433.713 273.597 432.781C273.597 431.849 275.772 433.247 281.398 433.396C287.024 433.564 293.587 430.302 300.151 430.134C306.714 429.985 306.714 430.302 310.634 430.917C311.946 431.122 312.734 430.935 313.39 430.563C309.921 421.69 305.814 417.365 305.814 417.365C291.975 416.284 290.118 407.579 286.686 400.29C283.254 392.983 283.723 375.424 283.405 365.637C283.086 355.851 280.76 352.906 273.465 352.123C266.189 351.359 249.43 360.48 230.109 357.1C225.925 356.369 222.401 355.814 219.626 354.528C217.019 348.339 214.563 341.517 212.556 335.197C210.268 328.021 208.581 321.478 207.962 317.209C207.493 313.984 206.987 311.077 206.518 308.635L214.956 300.843L269.115 289.379C269.115 289.379 319.354 271.353 341.857 263.897C364.361 256.441 395.603 224.137 406.236 217.296C415.969 211.033 445.579 186.576 454.843 181.04C460.675 199.009 461.051 213.064 461.051 213.064C461.051 213.064 471.271 203.39 482.279 203.353H482.354C484.979 203.353 487.661 203.893 490.249 205.254C503.751 212.319 497.375 239.161 493.924 251.837" fill="#191919"/>
<path d="M325.936 449.546C325.936 449.546 324.757 451.241 320.922 451.805C317.087 452.372 324.91 454.031 324.91 454.031C324.91 454.031 327.635 453.42 327.751 453.129C327.869 452.838 328.132 451.062 328.132 451.062L325.936 449.546" fill="#191919"/>
<path d="M251.412 416.172C249.03 411.456 246.705 406.665 244.642 402.266C239.298 390.914 224.033 364.034 224.033 364.034C222.551 361.182 221.07 357.958 219.626 354.528C218.688 352.272 217.751 349.942 216.869 347.575C216.869 347.575 221.182 356.558 230.109 357.1C230.109 357.1 229.377 361.294 232.19 369.925C235.003 378.537 240.179 383.421 245.561 393.226C250.943 402.993 249.762 412.91 251.375 416.079L251.412 416.172" fill="white"/>
<path d="M240.404 351.042C236.297 351.62 231.178 349.961 231.178 349.961C230.559 353.372 230.109 357.1 230.109 357.1C225.871 356.802 222.401 355.814 219.626 354.528C217.019 348.339 214.563 341.517 212.556 335.197H228.927C228.927 335.197 227.746 336.484 226.227 338.814C224.689 341.144 220.939 342.654 220.939 342.654C223.058 344.518 226.921 344.63 226.921 344.63C231.965 349.868 240.404 351.042 240.404 351.042" fill="white"/>
<path d="M312.623 401.129C311.742 403.552 305.797 409.051 299.721 410.077C297.171 410.487 294.808 412.481 297.546 414.494C300.284 416.508 305.816 417.365 305.816 417.365C301.915 417.999 294.564 415.669 291.133 412.239C287.701 408.828 283.013 405.789 280.95 405.416C278.662 404.988 277.612 406.535 278.006 408.045C276.449 407.28 273.467 402.154 273.467 397.494C273.467 393.803 275.83 391.287 277.274 389.665C278.643 391.585 278.249 394.027 278.718 394.735C279.187 395.425 280.162 381.668 280.162 381.668C281.006 376.263 281.381 368.489 281.081 359.523C281.025 357.492 280.931 355.404 280.8 353.279C283.031 354.64 283.931 356.578 284.288 357.902L284.344 358.181C284.4 358.535 284.457 358.871 284.513 359.206C286.238 371.174 285.488 381.407 288.638 385.918C293.627 393.058 304.035 394.922 307.71 394.064C312.005 393.058 314.949 394.773 312.623 401.129" fill="white"/>
<path d="M608.279 496.382C606.404 498.862 581.088 510.27 566.385 518.024C563.685 519.59 565.279 525.443 567.548 532.582L567.586 532.657C570.324 541.12 573.999 551.353 572.649 558.418C570.136 571.467 450.999 679.582 450.999 679.582H388.233C391.046 660.941 397.291 644.165 402.842 632.03C407.699 621.367 414.225 611.507 422.082 602.783C517.609 496.737 514.459 427.636 513.465 417.906V417.887C513.39 417.104 513.315 416.713 513.315 416.713C570.267 444.636 610.155 493.885 608.279 496.382" fill="#191919"/>
<path d="M608.279 496.382C606.404 498.862 581.088 510.27 566.386 518.024C563.685 519.59 565.279 525.443 567.548 532.582C567.061 531.501 562.166 520.578 565.054 516.477C568.111 512.171 590.732 502.142 595.889 499.234C597.83 498.133 599.224 497.134 600.208 496.317C601.532 495.214 601.8 493.279 600.831 491.858C570.836 447.88 513.465 417.906 513.465 417.906V417.887C513.39 417.104 513.315 416.713 513.315 416.713C570.267 444.636 610.155 493.885 608.279 496.382" fill="#B7B9B7"/>
<path d="M451.487 308.914C451.487 308.914 446.33 360.381 444.117 369.645C443.254 373.299 440.254 381.799 436.128 391.772C438.285 385.732 442.56 368.079 443.873 357.883C445.017 349.01 447.417 322.801 448.505 309.716L451.487 308.914" fill="#B7B9B7"/>
<path d="M293.437 481.209C286.48 471.535 279.298 458.43 277.216 454.944C274.684 450.694 269.677 446.426 264.82 439.715C264.82 439.715 268.515 442.986 272.871 445.876C275.761 447.796 278.998 448.478 281.435 451.794C287.511 460.089 286.724 469.26 293.437 481.209Z" fill="white"/>
<path d="M493.924 251.837C490.493 264.512 481.473 286.844 477.253 295.623C475.472 299.314 470.671 302.241 465.683 304.385C466.076 304.161 472.34 300.656 475.134 294.039C478.003 287.198 495.331 249.495 494.661 221.18C494.286 205.26 483.254 203.427 482.354 203.353C484.979 203.353 487.661 203.893 490.249 205.254C503.751 212.319 497.375 239.161 493.924 251.837Z" fill="#B7B9B7"/>
<path d="M274.902 431.974C274.902 431.974 277.949 432.964 281.992 432.731C286.036 432.498 294.182 430.11 297.698 429.644C301.214 429.178 304.432 429.644 304.432 429.644C304.432 429.644 301.567 428.303 297.464 428.712C293.362 429.12 281.758 433.489 274.902 431.974Z" fill="white"/>
<path d="M339.56 542.108C339.56 542.108 329.598 547.933 328.132 561.447C326.667 574.962 326.727 601.215 325.409 604.399C324.089 607.583 320.983 606.71 321.334 607.758C321.687 608.807 331.663 613.059 334.469 612.884C337.274 612.709 334.521 611.195 333.349 609.331C332.177 607.467 334.872 569.487 337.568 562.845C340.263 556.206 352.218 548.982 351.281 546.419C350.343 543.856 347.061 539.429 339.56 542.108Z" fill="white"/>
<path d="M211.112 520.671C212.5 523.467 225.871 538.622 222.12 543.506C218.37 548.39 197.573 556.815 195.172 564.178C192.791 571.429 209.687 631.862 215.332 653.094C206.124 619.802 190.728 567.273 191.065 562.948C191.534 556.89 216.851 545.239 217.319 542.052C217.788 538.864 206.068 522.405 204.661 519.609C203.93 518.155 225.908 499.253 247.305 481.339C244.849 483.744 209.743 517.968 211.112 520.671" fill="#B7B9B7"/>
<path d="M146.64 528.416C146.64 528.416 130.387 537.492 122.261 567.217C114.135 596.943 110.385 641.993 110.385 641.993L167.268 637.331V589.487L146.64 528.416Z" fill="#191919"/>
<path d="M408.786 495.86L403.029 502.981L400.404 506.243L399.41 507.474L326.517 439.79C326.63 439.827 327.024 439.92 327.961 439.752C328.486 439.659 329.18 439.491 330.08 439.175C330.943 438.876 331.993 438.522 333.062 438.205C334.675 437.721 336.363 437.292 337.694 437.161C338.35 437.087 338.913 437.087 339.344 437.18L408.786 495.86" fill="white"/>
<path d="M400.404 506.243L399.41 507.474L326.517 439.79C326.63 439.827 327.024 439.92 327.961 439.752L400.16 504.584L400.404 506.243" fill="#DCDDDA"/>
<path d="M339.344 437.18C338.407 436.975 336.888 437.199 335.237 437.59L335.258 437.609C334.536 437.782 333.794 437.987 333.062 438.205C331.993 438.522 330.943 438.876 330.08 439.175C329.18 439.491 328.486 439.659 327.961 439.752C327.961 439.752 329.124 440.349 332.293 440.162C335.462 439.995 337.282 439.38 339.551 441.355L339.605 441.398L401.791 495.618C401.791 495.618 403.592 496.942 402.917 498.675C402.598 499.533 403.217 500.8 403.929 501.863L408.786 495.861L339.344 437.18" fill="#B7B9B7"/>
<path d="M398.397 504.594C398.084 504.012 398.092 503.339 398.498 503.093C398.905 502.847 398.905 502.847 399.295 502.109C399.687 501.371 399.179 501.371 399.764 500.362C400.351 499.352 400.467 499.08 401.21 498.808C401.953 498.535 402.89 497.682 403.164 496.983C403.438 496.284 403.069 495.825 404.151 495.628C405.235 495.43 405.508 495.391 405.898 495.273C406.288 495.158 406.645 494.88 407.369 494.662C408.098 495.253 408.786 495.861 408.786 495.861L408.164 498.692L404.921 503.391L399.436 507.498C399.436 507.498 398.877 507.004 398.176 506.329C398.082 505.956 398.339 505.097 398.397 504.594" fill="#191919"/>
<path d="M406.437 503.544C403.834 506.743 400.698 508.514 399.436 507.498C398.174 506.482 399.262 503.067 401.865 499.868C404.469 496.668 407.603 494.899 408.865 495.915C410.129 496.929 409.041 500.345 406.437 503.544Z" fill="#8F00FF"/>
<path d="M343.658 456.026C343.47 455.865 343.359 455.591 343.359 455.177C343.348 454.027 344.295 452.031 345.925 450.184C347.673 448.172 349.715 446.935 350.812 446.953C351.091 446.955 351.292 447.024 351.438 447.151L351.809 446.73C351.539 446.495 351.187 446.394 350.812 446.394C349.368 446.415 347.333 447.745 345.501 449.815C343.821 451.742 342.806 453.766 342.797 455.177C342.795 455.684 342.937 456.145 343.288 456.449L343.658 456.026" fill="#191919"/>
<path d="M410.176 489.638C410.176 489.638 400.087 471.136 405.096 451.319C410.103 431.5 424.644 395.561 405.812 369.394C405.812 369.394 428.751 382.27 424.338 415.352C421.752 434.742 411.971 447.913 408.929 463.133C407.164 471.961 408.443 483.148 410.176 489.638Z" fill="white"/>
<path d="M401.566 451.246C401.566 451.246 406.371 436.026 406.236 428.013C406.101 419.999 401.289 408.117 395.614 399.108C388.597 387.971 394.688 374.742 394.688 374.742C394.688 374.742 383.042 387.568 388.132 402.026C391.907 412.753 407.627 423.598 401.566 451.246Z" fill="white"/>
<path d="M404.516 404.32C404.516 404.32 416.563 391.947 410.242 372.369C406.585 361.046 406.153 343.677 409.797 334.469C409.797 334.469 403.459 340.445 402.405 357.08C401.349 373.714 411.121 384.254 404.516 404.32" fill="white"/>
<path d="M119.45 312.325C148.749 330.071 204.736 344.253 256.916 332.778C374.326 306.959 391.995 256.104 429.534 230.862C457.249 212.226 514.237 194.072 529.343 163.592C540.208 141.671 523.184 116.629 498.603 117.017C483.83 117.252 462.918 123.256 435.258 143.869C351.234 206.484 302.064 204.277 239.495 219.643C176.926 235.008 14.8918 248.992 119.45 312.325Z" fill="#191919"/>
<path d="M433.872 148.326C433.872 148.326 467.809 121.934 496.253 121.295C508.278 121.025 519.605 127.802 523.959 138.946C524.353 139.954 524.698 141.009 524.979 142.113C524.979 142.113 519.228 132.964 505.289 131.706C476.066 129.064 437.778 162.463 437.778 162.463" fill="#8F00FF"/>
<path d="M178.675 236.402C178.675 236.402 96.7102 250.383 93.0759 273.428C89.0065 299.243 151.484 323.547 171.795 327.042C189.989 330.174 233.606 336.828 281.66 323.78C329.715 310.732 414.448 228.946 439.007 212.636C439.007 212.636 440.859 209.839 364.543 248.053C316.239 272.239 223.692 281.591 184.539 272.807C184.146 259.237 180.864 254.267 178.675 236.402Z" fill="#8F00FF"/>
<path d="M184.539 272.807C184.539 272.807 178.913 249.246 173.1 220.931C171.337 212.226 169.537 203.054 167.868 193.995C165.43 180.592 161.905 155.894 160.292 141C159.823 136.545 159.523 132.984 159.467 130.841C159.317 124.708 159.635 117.438 161.173 110.187C161.248 109.87 161.305 109.591 161.342 109.385C161.38 109.218 161.417 109.05 161.455 108.882C164.061 97.6419 169.65 86.5694 180.883 79.9706C197.366 70.2962 224.033 71.9179 248.187 73.5396H248.262C258.651 74.2293 268.571 74.9191 277.01 74.714C298.651 52.7554 314.366 18.4567 336.569 18.1771C373.868 17.6925 424.501 85.4883 445.861 157.683C453.981 185.141 290.531 279.406 184.539 272.807Z" fill="#191919"/>
<path d="M287.286 77.0254C271.346 93.1123 243.442 103.234 226.227 106.738C216.444 108.718 204.282 112.692 192.959 117.015V117.009C186.958 118.89 177.113 119.116 181.108 105.303C185.083 91.4719 193.297 83.5496 204.774 78.8895C215.669 74.4717 245.186 73.6142 248.187 73.5396C224.033 71.9179 197.366 70.2962 180.883 79.9706C169.65 86.5694 164.061 97.6419 161.455 108.882C161.417 109.05 161.38 109.218 161.342 109.385C161.305 109.59 161.248 109.87 161.173 110.187C159.635 117.438 159.317 124.708 159.467 130.841C159.474 131.126 159.487 131.437 159.502 131.769L159.512 131.935C159.62 134.108 159.894 137.229 160.292 141L160.309 141.005C161.908 155.905 165.426 180.598 167.868 193.995C169.537 203.054 171.337 212.226 173.1 220.931C187.352 221.919 220.076 220.316 220.076 220.316C220.076 220.316 201.023 146.462 212.275 133.637C223.527 120.831 228.684 123.627 259.626 110.336C290.568 97.064 306.264 67.9475 319.879 47.2005C333.456 26.4536 348.121 24.1421 348.121 24.1421C323.386 17.8416 303.226 60.9386 287.286 77.0254" fill="#8F00FF"/>
<path d="M171.795 214.442C171.795 214.442 170.784 214.472 171.137 215.111C171.487 215.752 174.184 232.501 175.59 239.025C176.997 245.549 183.208 270.887 183.266 271.12C183.326 271.353 182.756 272.44 184.532 272.813C184.532 272.813 283.213 285.651 415.674 193.999C415.674 193.999 294.279 223.395 171.795 214.442" fill="white"/>
</g>
<defs>
<clipPath id="clip0_2_27">
<rect width="550" height="667" fill="white"/>
</clipPath>
</defs>
</svg>
